<svg width="1200" height="420" viewBox="0 0 1200 420" fill="none" xmlns="http://www.w3.org/2000/svg" role="img" aria-labelledby="title desc">
  <title id="title">Kadir animated developer banner</title>
  <desc id="desc">A modern animated GitHub profile banner with a terminal, orbit lines, particles, and developer themed text.</desc>
  <defs>
    <linearGradient id="bg" x1="0" y1="0" x2="1200" y2="420" gradientUnits="userSpaceOnUse">
      <stop stop-color="#0B0F0E"/>
      <stop offset="0.42" stop-color="#11161B"/>
      <stop offset="1" stop-color="#15100D"/>
    </linearGradient>
    <linearGradient id="accent" x1="196" y1="88" x2="1000" y2="335" gradientUnits="userSpaceOnUse">
      <stop stop-color="#00C2A8"/>
      <stop offset="0.52" stop-color="#FFB703"/>
      <stop offset="1" stop-color="#FF6B4A"/>
    </linearGradient>
    <radialGradient id="glow" cx="0" cy="0" r="1" gradientUnits="userSpaceOnUse" gradientTransform="translate(776 206) rotate(121) scale(316 470)">
      <stop stop-color="#00C2A8" stop-opacity="0.32"/>
      <stop offset="0.42" stop-color="#FFB703" stop-opacity="0.14"/>
      <stop offset="1" stop-color="#000000" stop-opacity="0"/>
    </radialGradient>
    <filter id="soft" x="-80" y="-80" width="1360" height="580" filterUnits="userSpaceOnUse" color-interpolation-filters="sRGB">
      <feGaussianBlur stdDeviation="30"/>
    </filter>
    <pattern id="grid" width="38" height="38" patternUnits="userSpaceOnUse">
      <path d="M 38 0 L 0 0 0 38" fill="none" stroke="#FFFFFF" stroke-opacity="0.045" stroke-width="1"/>
    </pattern>
    <style>
      .fade { animation: fade 5s ease-in-out infinite alternate; }
      .float { animation: float 7s ease-in-out infinite; }
      .dash { stroke-dasharray: 10 18; animation: dash 18s linear infinite; }
      .blink { animation: blink 1.05s steps(2, start) infinite; }
      .scan { animation: scan 4.8s ease-in-out infinite; }
      .pulse { animation: pulse 2.9s ease-in-out infinite; transform-origin: center; }
      .code { font: 500 19px 'JetBrains Mono', 'Fira Code', Consolas, monospace; }
      .tiny { font: 500 13px 'JetBrains Mono', 'Fira Code', Consolas, monospace; letter-spacing: 0; }
      .title { font: 800 70px Inter, ui-sans-serif, system-ui, -apple-system, BlinkMacSystemFont, 'Segoe UI', sans-serif; letter-spacing: 0; }
      .subtitle { font: 500 24px Inter, ui-sans-serif, system-ui, -apple-system, BlinkMacSystemFont, 'Segoe UI', sans-serif; letter-spacing: 0; }
      @keyframes dash { to { stroke-dashoffset: -280; } }
      @keyframes fade { from { opacity: .55; } to { opacity: 1; } }
      @keyframes float { 0%,100% { transform: translateY(0); } 50% { transform: translateY(-14px); } }
      @keyframes blink { 0%,45% { opacity: 1; } 46%,100% { opacity: 0; } }
      @keyframes scan { 0%,100% { transform: translateY(-120px); opacity: 0; } 15%,80% { opacity: .75; } 50% { transform: translateY(116px); } }
      @keyframes pulse { 0%,100% { transform: scale(1); opacity: .72; } 50% { transform: scale(1.08); opacity: 1; } }
    </style>
  </defs>
  <rect width="1200" height="420" rx="28" fill="url(#bg)"/>
  <rect width="1200" height="420" rx="28" fill="url(#grid)"/>
  <rect x="154" y="-66" width="910" height="540" rx="270" fill="url(#glow)" filter="url(#soft)" class="fade"/>

  <g opacity="0.78">
    <path d="M734 67C849 78 935 133 972 214C1010 297 938 354 823 351C708 348 595 299 565 217C535 135 618 56 734 67Z" stroke="url(#accent)" stroke-width="2" class="dash"/>
    <path d="M789 105C885 124 941 180 925 244C909 309 827 337 733 318C640 298 583 242 599 178C615 114 696 86 789 105Z" stroke="#FFFFFF" stroke-opacity="0.2" stroke-width="1.2" class="dash"/>
    <circle cx="969" cy="214" r="7" fill="#FFB703" class="pulse"/>
    <circle cx="599" cy="178" r="6" fill="#00C2A8" class="pulse"/>
    <circle cx="823" cy="351" r="5" fill="#FF6B4A" class="pulse"/>
  </g>

  <g class="float">
    <rect x="88" y="90" width="440" height="244" rx="20" fill="#0F1414" stroke="#FFFFFF" stroke-opacity="0.12"/>
    <rect x="88" y="90" width="440" height="42" rx="20" fill="#161D1C"/>
    <circle cx="120" cy="112" r="6" fill="#FF6B4A"/>
    <circle cx="142" cy="112" r="6" fill="#FFB703"/>
    <circle cx="164" cy="112" r="6" fill="#00C2A8"/>
    <rect x="111" y="164" width="222" height="12" rx="6" fill="#00C2A8" fill-opacity="0.32"/>
    <rect x="111" y="197" width="310" height="12" rx="6" fill="#FFFFFF" fill-opacity="0.13"/>
    <rect x="111" y="230" width="274" height="12" rx="6" fill="#FFB703" fill-opacity="0.28"/>
    <rect x="111" y="263" width="352" height="12" rx="6" fill="#FFFFFF" fill-opacity="0.11"/>
    <text x="112" y="309" fill="#DDEAE7" class="code">&gt; build --mobile --useful<tspan class="blink">_</tspan></text>
    <rect x="88" y="132" width="440" height="2" fill="#FFFFFF" fill-opacity="0.06"/>
    <rect x="96" y="140" width="424" height="35" fill="#00C2A8" fill-opacity="0.07" class="scan"/>
  </g>

  <g>
    <text x="610" y="159" fill="#F5F7F4" class="title">Kadir</text>
    <text x="614" y="204" fill="#D7DED9" class="subtitle">mobile apps / clean architecture / product systems</text>
    <text x="616" y="248" fill="#00C2A8" class="tiny">react native</text>
    <text x="744" y="248" fill="#FFB703" class="tiny">c# systems</text>
    <text x="856" y="248" fill="#FF6B4A" class="tiny">kotlin ideas</text>
    <rect x="615" y="278" width="344" height="44" rx="22" fill="#FFFFFF" fill-opacity="0.08" stroke="#FFFFFF" stroke-opacity="0.12"/>
    <text x="638" y="306" fill="#F5F7F4" class="tiny">turning practical workflows into polished apps</text>
  </g>

  <g opacity="0.9">
    <circle cx="1060" cy="100" r="3" fill="#00C2A8">
      <animate attributeName="cy" values="100;86;100" dur="3s" repeatCount="indefinite"/>
    </circle>
    <circle cx="1032" cy="288" r="4" fill="#FFB703">
      <animate attributeName="cy" values="288;306;288" dur="4.5s" repeatCount="indefinite"/>
    </circle>
    <circle cx="556" cy="72" r="3" fill="#FF6B4A">
      <animate attributeName="cy" values="72;58;72" dur="3.7s" repeatCount="indefinite"/>
    </circle>
    <circle cx="78" cy="354" r="4" fill="#00C2A8">
      <animate attributeName="cx" values="78;98;78" dur="4.3s" repeatCount="indefinite"/>
    </circle>
  </g>
</svg>
